<svg width="17" height="17" viewBox="0 0 17 17" fill="none" xmlns="http://www.w3.org/2000/svg">
<g clip-path="url(#clip0_2022_105863)">
<path d="M11.8611 14.612V15.212C12.1925 15.212 12.4611 14.9434 12.4611 14.612H11.8611ZM11.8611 10.3898V9.78976H11.2611V10.3898H11.8611ZM4.58841 14.612H3.98841C3.98841 14.9434 4.25704 15.212 4.58841 15.212V14.612ZM4.58841 10.3898H5.18841V9.78976H4.58841V10.3898ZM4.79293 4.36477L4.75322 4.96346L5.2073 4.99357L5.35874 4.56444L4.79293 4.36477ZM11.6566 4.36477L11.0908 4.56444L11.2422 4.99357L11.6963 4.96346L11.6566 4.36477ZM12.4611 14.612V10.3898H11.2611V14.612H12.4611ZM4.58841 15.212H11.8611V14.012H4.58841V15.212ZM3.98841 10.3898V14.612H5.18841V10.3898H3.98841ZM0.958105 7.37388C0.958105 9.37357 2.58615 10.9898 4.58841 10.9898V9.78976C3.24349 9.78976 2.15811 8.70544 2.15811 7.37388H0.958105ZM4.58841 3.75801C2.58615 3.75801 0.958105 5.3742 0.958105 7.37388H2.15811C2.15811 6.04233 3.24349 4.95801 4.58841 4.95801V3.75801ZM4.83264 3.76609C4.75184 3.76073 4.6704 3.75801 4.58841 3.75801V4.95801C4.64388 4.95801 4.69884 4.95985 4.75322 4.96346L4.83264 3.76609ZM8.22477 1.34531C6.37814 1.34531 4.80691 2.52213 4.22713 4.16511L5.35874 4.56444C5.7735 3.38909 6.89974 2.54531 8.22477 2.54531V1.34531ZM12.2224 4.16511C11.6426 2.52213 10.0714 1.34531 8.22477 1.34531V2.54531C9.54981 2.54531 10.676 3.38909 11.0908 4.56444L12.2224 4.16511ZM11.6963 4.96346C11.7507 4.95985 11.8057 4.95801 11.8611 4.95801V3.75801C11.7791 3.75801 11.6977 3.76073 11.6169 3.76609L11.6963 4.96346ZM11.8611 4.95801C13.2061 4.95801 14.2914 6.04233 14.2914 7.37388H15.4914C15.4914 5.3742 13.8634 3.75801 11.8611 3.75801V4.95801ZM14.2914 7.37388C14.2914 8.70544 13.2061 9.78976 11.8611 9.78976V10.9898C13.8634 10.9898 15.4914 9.37357 15.4914 7.37388H14.2914Z" fill="#1D1D1D"/>
<line x1="4.89111" y1="12.0123" x2="11.5578" y2="12.0123" stroke="#1D1D1D" stroke-width="1.2"/>
</g>
<defs>
<clipPath id="clip0_2022_105863">
<rect width="16" height="16" fill="white" transform="translate(0.224609 0.612305)"/>
</clipPath>
</defs>
</svg>
