<svg width="33" height="33" viewBox="0 0 33 33" fill="none" xmlns="http://www.w3.org/2000/svg">
<path d="M19.415 13.7504H26.125V11.2754H21.1475L18.3975 6.69664C17.985 6.00914 17.2425 5.54164 16.39 5.54164C16.1425 5.54164 15.9225 5.58289 15.7025 5.65164L8.25 7.97539V15.1254H10.725V10.0791L13.6262 9.17164L8.25 30.2504H10.725L14.6713 19.0991L17.875 23.3754V30.2504H20.35V21.4366L16.9263 15.1941L17.93 11.2479M19.25 5.22539C20.625 5.22539 21.725 4.12539 21.725 2.75039C21.725 1.37539 20.625 0.275391 19.25 0.275391C17.875 0.275391 16.775 1.37539 16.775 2.75039C16.775 4.12539 17.875 5.22539 19.25 5.22539Z" fill="black"/>
</svg>
