<svg width="28" height="28" viewBox="0 0 28 28" fill="none" xmlns="http://www.w3.org/2000/svg">
<path d="M0 4.26125C0 1.90783 1.90783 0 4.26125 0H23.7388C26.0922 0 28 1.90783 28 4.26125V23.7388C28 26.0922 26.0922 28 23.7388 28H4.26125C1.90783 28 0 26.0922 0 23.7388V4.26125Z" fill="#FF3000"/>
<path d="M21.0903 23.1875C19.8404 23.1875 18.9793 22.5024 18.9793 20.3801V19.9236H20.3681V20.3804C20.3681 21.5087 20.6737 21.8175 21.0903 21.8175C21.5068 21.8175 21.7987 21.5087 21.7987 20.9848C21.7987 20.3265 21.7015 19.964 20.7292 19.2789C19.5903 18.4865 19.0625 17.6402 19.0625 16.5522C19.0625 15.1687 19.8124 14.3359 21.0903 14.3359C21.9791 14.3359 23.1598 14.6046 23.1598 16.861V17.385H21.7709V16.861C21.7709 15.9746 21.4793 15.6791 21.0903 15.6791C20.6737 15.6791 20.4513 15.9746 20.4513 16.4983C20.4513 17.0355 20.5763 17.4787 21.5485 18.2042C22.757 19.1041 23.1875 19.8161 23.1875 20.9845C23.1875 22.1529 22.6318 23.1875 21.0903 23.1875ZM16.3541 23.1875C15.1042 23.1875 14.2431 22.6099 14.2431 20.3801V19.9236H15.632V20.3804C15.632 21.5087 15.9376 21.8175 16.3541 21.8175C16.7706 21.8175 17.0625 21.5087 17.0625 20.9848C17.0625 20.3265 16.9653 19.964 15.993 19.2789C14.8541 18.4865 14.3263 17.6402 14.3263 16.5522C14.3263 15.1687 15.0762 14.3359 16.3541 14.3359C17.2429 14.3359 18.4236 14.6046 18.4236 16.861V17.385H17.0348V16.861C17.0348 15.9746 16.7432 15.6791 16.3541 15.6791C15.9376 15.6791 15.7152 15.9746 15.7152 16.4983C15.7152 17.0355 15.8401 17.4787 16.8124 18.2042C18.0208 19.1041 18.4513 19.8161 18.4513 20.9845C18.4513 22.1529 17.8958 23.1875 16.3541 23.1875ZM21.0903 13.6641C19.8404 13.6641 18.9793 12.979 18.9793 10.8567V10.4002H20.3681V10.8569C20.3681 11.9853 20.6737 12.2941 21.0903 12.2941C21.5068 12.2941 21.7987 11.9853 21.7987 11.4613C21.7987 10.8031 21.7015 10.4406 20.7292 9.75545C19.5903 8.96304 19.0625 8.11674 19.0625 7.02878C19.0625 5.64527 19.8124 4.8125 21.0903 4.8125C21.9791 4.8125 23.1598 5.08123 23.1598 7.33762V7.86155H21.7709V7.33762C21.7709 6.45121 21.4793 6.15565 21.0903 6.15565C20.6737 6.15565 20.4513 6.45121 20.4513 6.97488C20.4513 7.5121 20.5763 7.9553 21.5485 8.68078C22.757 9.58072 23.1875 10.2927 23.1875 11.4611C23.1875 12.6295 22.6318 13.6641 21.0903 13.6641ZM16.3541 13.6641C15.1042 13.6641 14.2431 13.0865 14.2431 10.8567V10.4002H15.632V10.8569C15.632 11.9853 15.9376 12.2941 16.3541 12.2941C16.7706 12.2941 17.0625 11.9853 17.0625 11.4613C17.0625 10.8031 16.9653 10.4406 15.993 9.75545C14.8541 8.96304 14.3263 8.11674 14.3263 7.02878C14.3263 5.64527 15.0762 4.8125 16.3541 4.8125C17.2429 4.8125 18.4236 5.08123 18.4236 7.33762V7.86155H17.0348V7.33762C17.0348 6.45121 16.7432 6.15565 16.3541 6.15565C15.9376 6.15565 15.7152 6.45121 15.7152 6.97488C15.7152 7.5121 15.8401 7.9553 16.8124 8.68078C18.0208 9.58072 18.4513 10.2927 18.4513 11.4611C18.4513 12.6295 17.8958 13.6641 16.3541 13.6641ZM6.20158 19.9236H6.47944C7.09065 19.9236 7.39599 19.6281 7.39599 18.2581V17.479C7.39599 16.109 7.09039 15.8134 6.47944 15.8134H6.20158V19.9236ZM6.20158 23.0531H4.81276V14.47H6.47944C8.28506 14.47 8.78507 15.464 8.78507 17.3446V18.3922C8.78507 20.2726 8.28506 21.2668 6.47944 21.2668H6.20158V23.0531ZM6.47918 9.05705H6.20132V6.29002H6.47918C7.10413 6.29002 7.39573 6.49157 7.39573 7.43163V7.91519C7.39599 8.8555 7.10438 9.05705 6.47918 9.05705ZM9.04868 13.53L7.9792 9.957C8.4932 9.54062 8.78481 8.8555 8.78481 8.00945V7.33787C8.78481 5.76635 8.06266 4.94687 6.47918 4.94687H4.8125V13.53H6.20132V10.4002H6.38198C6.45145 10.4002 6.54865 10.4002 6.70132 10.3867L7.53466 13.5297L9.04868 13.53ZM10.6319 19.9236L11.3403 15.8134H11.4515L12.1596 19.9236H10.6319ZM12.6876 23.0531H14.0765L12.5347 14.47H10.2571L8.7016 23.0531H10.0904L10.4098 21.2668H12.382L12.6876 23.0531ZM11.5347 13.6641C9.82629 13.6641 9.50695 12.4149 9.50695 10.8971V4.94687H10.9515V11.0181C10.9515 12.0793 11.1459 12.3209 11.5347 12.3209C11.9235 12.3209 12.1179 12.0793 12.1179 11.0181V4.94687H13.5625V10.8973C13.5625 12.4149 13.2431 13.6641 11.5347 13.6641Z" fill="white"/>
</svg>
