<svg width="24" height="24" viewBox="0 0 24 24" fill="none" xmlns="http://www.w3.org/2000/svg">
<path d="M19.8759 21.2979L20.5825 22.0055L21.9977 20.5923L21.2911 19.8847L19.8759 21.2979ZM15.7077 14.2934C15.3175 13.9026 14.6843 13.9021 14.2935 14.2924C13.9027 14.6826 13.9022 15.3158 14.2925 15.7066L15.7077 14.2934ZM21.2911 19.8847L15.7077 14.2934L14.2925 15.7066L19.8759 21.2979L21.2911 19.8847ZM16 10C16 13.3137 13.3137 16 10 16V18C14.4183 18 18 14.4183 18 10H16ZM10 16C6.68629 16 4 13.3137 4 10H2C2 14.4183 5.58172 18 10 18V16ZM4 10C4 6.68629 6.68629 4 10 4V2C5.58172 2 2 5.58172 2 10H4ZM10 4C13.3137 4 16 6.68629 16 10H18C18 5.58172 14.4183 2 10 2V4Z" fill="#1D1D1D"/>
</svg>
